<?xml version="1.0" encoding="utf-8"?>
<!-- Generator: Adobe Illustrator 27.6.1, SVG Export Plug-In . SVG Version: 6.00 Build 0)  -->
<svg version="1.1" id="레이어_1" xmlns="http://www.w3.org/2000/svg" xmlns:xlink="http://www.w3.org/1999/xlink" x="0px"
	 y="0px" viewBox="0 0 150 150" style="enable-background:new 0 0 150 150;" xml:space="preserve">
<style type="text/css">
	.st0{fill:#FFFFFF;stroke:#FFFFFF;stroke-width:10;stroke-miterlimit:10;}
</style>
<g>
	<g>
		<path class="st0" d="M130,134.2c-1.1,0-2.1-0.4-2.9-1.2L17,22.9c-1.6-1.6-1.6-4.2,0-5.9c1.6-1.6,4.2-1.6,5.9,0l110,110
			c1.6,1.6,1.6,4.2,0,5.9C132.1,133.8,131.1,134.2,130,134.2z"/>
	</g>
	<g>
		<path class="st0" d="M20,134.2c-1.1,0-2.1-0.4-2.9-1.2c-1.6-1.6-1.6-4.2,0-5.9l110-110c1.6-1.6,4.2-1.6,5.9,0
			c1.6,1.6,1.6,4.2,0,5.9l-110,110C22.1,133.8,21,134.2,20,134.2z"/>
	</g>
</g>
</svg>
