<?xml version="1.0" encoding="utf-8"?>
<!-- Generator: Adobe Illustrator 27.6.1, SVG Export Plug-In . SVG Version: 6.00 Build 0)  -->
<svg version="1.1" id="레이어_1" xmlns="http://www.w3.org/2000/svg" xmlns:xlink="http://www.w3.org/1999/xlink" x="0px"
	 y="0px" viewBox="0 0 150 150" style="enable-background:new 0 0 150 150;" xml:space="preserve">
<style type="text/css">
	.st0{fill:#FFFFFF;}
</style>
<g>
	<g>
		<path class="st0" d="M74.7,107.7c19.6,0,35.6-15.9,35.6-35.6V43.7c0-9.7-3.8-18.8-10.8-25.5c-7-6.8-16.1-10.2-25.9-10
			c-19,0.6-34.5,17.1-34.5,36.9v24.1C39.2,91.2,54.5,107.7,74.7,107.7L74.7,107.7z M43.9,45.1c0-17.2,13.4-31.7,29.9-32.2
			c8.4-0.3,16.4,2.8,22.4,8.7c6,5.9,9.4,13.7,9.4,22.1v28.4c0,17-13.8,30.8-30.8,30.8c-17.6,0-30.8-14.5-30.8-33.8V45.1L43.9,45.1z
			 M72.4,48.5v-19c0-1.3,1.1-2.4,2.4-2.4c1.3,0,2.4,1.1,2.4,2.4v19c0,1.3-1.1,2.4-2.4,2.4C73.4,50.8,72.4,49.8,72.4,48.5z"/>
	</g>
	<g>
		<g>
			<path class="st0" d="M74.7,131.6c-0.5,0-1-0.2-1.4-0.6l-13.4-13.4c-0.8-0.8-0.8-2,0-2.8c0.8-0.8,2-0.8,2.8,0l12,12l12-12
				c0.8-0.8,2-0.8,2.8,0c0.8,0.8,0.8,2,0,2.8L76.1,131C75.8,131.4,75.2,131.6,74.7,131.6z"/>
		</g>
		<g>
			<path class="st0" d="M74.7,142.6c-0.5,0-1-0.2-1.4-0.6l-13.4-13.4c-0.8-0.8-0.8-2,0-2.8c0.8-0.8,2-0.8,2.8,0l12,12l12-12
				c0.8-0.8,2-0.8,2.8,0s0.8,2,0,2.8L76.1,142C75.8,142.4,75.2,142.6,74.7,142.6z"/>
		</g>
	</g>
</g>
</svg>
